<svg viewBox="0 0 64 64" xmlns="http://www.w3.org/2000/svg"><style><![CDATA[:root>svg{display:none}:root>svg:target{display:block}]]></style><svg fill="none" viewBox="0 0 16 15" id="active-green" xmlns="http://www.w3.org/2000/svg"><path d="M13.974 4.89A2.99 2.99 0 0 0 14 4.5c0-1.784-1.607-3.216-3.39-2.974A2.996 2.996 0 0 0 8 0C6.9 0 5.91.602 5.39 1.526 3.605 1.284 2 2.716 2 4.5c0 .13.009.26.026.39A2.998 2.998 0 0 0 .5 7.5c0 1.099.601 2.089 1.526 2.61A2.98 2.98 0 0 0 2 10.5c0 1.784 1.603 3.212 3.39 2.974A2.996 2.996 0 0 0 8 15c1.1 0 2.09-.601 2.61-1.526 1.783.238 3.39-1.19 3.39-2.974 0-.13-.009-.26-.026-.39A2.998 2.998 0 0 0 15.5 7.5a2.998 2.998 0 0 0-1.526-2.61zm-6.758 5.922-2.75-2.785 1.068-1.053 1.693 1.714 3.245-3.22 1.056 1.064-4.312 4.28z" fill="#5AB677"/></svg><svg fill="none" viewBox="0 0 12 12" id="ad" xmlns="http://www.w3.org/2000/svg"><path d="m6.5 1.5 1.646 1.647-3.5 3.5.708.707 3.5-3.5L10.5 5.5v-4h-4z" fill="#fff"/><path d="M9.5 9.5h-7v-7H6l-1-1H2.5a1 1 0 0 0-1 1v7a1 1 0 0 0 1 1h7a1 1 0 0 0 1-1V7l-1-1v3.5z" fill="#fff"/></svg><svg fill="none" viewBox="0 0 8 5" id="arrow" xmlns="http://www.w3.org/2000/svg"><path d="M.195 1.138 4 4.943l3.805-3.805-.943-.943L4 3.057 1.138.195l-.943.943z" fill="#38424E"/></svg><svg fill="none" viewBox="0 0 48 48" id="banks-logo--logo_1" xmlns="http://www.w3.org/2000/svg"><path fill="#354148" d="M0 0h48v48H0z"/><path fill-rule="evenodd" clip-rule="evenodd" d="M18.948 24.48H24V12.32h-5.052v12.16zm1.319-1.349h2.414v-9.463h-2.415v9.463zm-7.383 4.39h23.242v-1.015H12.884v1.014zm0 9.12h1.354v-1.594h7.741v-5.501h-9.096v7.094h.001zm1.354-3h6.387v-2.688h-6.388v2.687zm13.149-17.276 2.499-2.697V24.48h1.365v-8.116l2.499-2.696V24.48h1.366V12.32h-1.92l-1.946 2.094V12.32h-1.917l-3.312 3.534v8.626h1.365v-8.115zm-4.398 18.68h5.317v1.594h1.464v-1.593h5.346v-5.5H22.989v5.5zm6.781-1.405h3.942v-2.687H29.77v2.687zm-5.375 0h3.912v-2.687h-3.913v2.687zm-7.777-9.16h1.319V12.32h-1.853l-3.2 3.534v8.626h3.733zm-2.414-8.115 2.413-2.697v9.463h-2.413v-6.766z" fill="#FEFEFE"/></svg><svg fill="none" viewBox="0 0 40 40" id="banks-logo--logo_10" xmlns="http://www.w3.org/2000/svg"><path fill="#009B3A" d="M0 0h40v40H0z"/><g clip-path="url(#aeclip0_1_1464)" fill="#fff"><path d="M10.397 12.98c0-.04-.013-.08-.027-.148l-.852-2.309c-.109-.281-.258-.402-.488-.402-.243 0-.392.12-.487.402l-.866 2.31a.606.606 0 0 0-.041.147c0 .12.095.215.23.215.108 0 .19-.054.244-.188l.284-.792h1.272l.285.792c.04.134.121.188.23.188.122.013.216-.094.216-.215zM8.53 11.812l.42-1.195c.014-.04.027-.053.068-.053.027 0 .04.013.054.053l.42 1.195H8.53zm5.753 1.37h.92c.596 0 .962-.35.962-.954 0-.577-.352-.9-.961-.9h-.812v-.737h1.353c.15 0 .244-.081.244-.229 0-.134-.095-.214-.244-.214H14.27c-.23 0-.366.12-.366.362v2.309c.027.241.15.362.38.362zm.122-1.437h.758c.352 0 .515.188.515.497 0 .322-.163.51-.515.51h-.758v-1.007zm-5.32 4.201h-.907v-.94H9.68c.095 0 .176-.053.176-.147s-.068-.148-.176-.148H8.137c-.176 0-.27.094-.27.269v2.51c0 .174.094.268.27.268h.947c.582 0 .92-.335.92-.912 0-.578-.338-.9-.92-.9zm-.04 1.504h-.867v-1.222h.867c.446 0 .636.215.636.604 0 .39-.176.618-.636.618zm2.233-2.014c-.27 0-.528.067-.663.134-.095.04-.135.081-.135.162 0 .08.067.134.135.134a.22.22 0 0 0 .122-.04c.108-.04.311-.108.514-.108.393 0 .582.161.582.51v.215a2.217 2.217 0 0 0-.636-.094c-.582 0-.866.335-.866.698 0 .443.338.725.852.725.434 0 .772-.148.894-.242.054-.04.068-.067.068-.134v-1.181c-.014-.524-.339-.779-.867-.779zm.542 1.906a1.371 1.371 0 0 1-.61.161c-.378 0-.595-.16-.595-.443 0-.255.19-.43.596-.43.203 0 .379.028.609.095v.617zm8.067-6.47a1.85 1.85 0 0 0-.852.215c-.109.067-.122.108-.122.282v2.336c0 .147.095.241.23.241s.23-.094.23-.241V13.1c.135.067.352.12.555.12.541 0 .907-.349.948-.859a4.92 4.92 0 0 0 0-.63c-.041-.51-.407-.86-.989-.86zm.528 1.423c-.027.296-.216.483-.541.483-.176 0-.393-.053-.501-.134v-1.208c.108-.08.325-.134.5-.134.34 0 .515.201.542.483.014.161.014.35 0 .51zm-7.783.51-.799-.792.758-.751c.054-.054.095-.121.095-.188 0-.108-.081-.188-.203-.188-.068 0-.122.027-.176.094l-.785.765a.194.194 0 0 1-.149.067h-.162v-.671c0-.148-.095-.242-.23-.242-.136 0-.23.094-.23.242v1.812c0 .148.094.242.23.242.135 0 .23-.094.23-.242v-.725h.135a.22.22 0 0 1 .149.067l.826.819c.067.067.121.094.19.094.12 0 .202-.08.202-.201a.297.297 0 0 0-.081-.202zm10.396-.456c-.108 0-.163.067-.203.134a.506.506 0 0 1-.488.295c-.324 0-.527-.2-.554-.483a3.05 3.05 0 0 1 0-.496c.027-.296.216-.484.555-.484.23 0 .406.121.487.296.04.067.095.134.203.134.135 0 .23-.08.23-.215a.49.49 0 0 0-.068-.215c-.135-.255-.433-.443-.852-.443-.569 0-.948.363-1.002.873a4.711 4.711 0 0 0 0 .617c.054.51.433.873 1.002.873.42 0 .717-.201.852-.457a.49.49 0 0 0 .068-.214c-.014-.134-.095-.215-.23-.215zm-5.59-1.477c-.258 0-.488.068-.637.121-.122.054-.176.121-.176.215 0 .107.081.201.19.201.054 0 .108-.027.176-.04.094-.04.257-.08.42-.08.351 0 .5.134.5.402v.188a2.155 2.155 0 0 0-.568-.08c-.582 0-.867.335-.867.684 0 .416.325.738.88.738.433 0 .772-.147.907-.241.068-.04.081-.08.081-.175v-1.114c.014-.564-.325-.819-.907-.819zm.473 1.84c-.135.066-.325.12-.5.12-.299 0-.488-.134-.488-.349 0-.201.162-.362.487-.362.176 0 .325.027.515.08v.51h-.014zm-1.922 3.879.88-.873c.04-.04.054-.08.054-.12a.135.135 0 0 0-.135-.135.166.166 0 0 0-.122.054l-.867.859c-.054.053-.094.08-.162.08h-.149v-.819c0-.107-.054-.16-.149-.16s-.149.053-.149.16v1.987c0 .108.054.161.15.161.094 0 .148-.053.148-.16v-.887h.162c.068 0 .122.027.163.08l.92.913a.17.17 0 0 0 .122.054.135.135 0 0 0 .136-.134c0-.054-.014-.08-.068-.134l-.934-.926zm-1.57-1.141c-.095 0-.15.053-.15.16v.82h-1.272v-.82c0-.107-.054-.16-.149-.16-.094 0-.148.053-.148.16v1.987c0 .108.054.161.149.161.094 0 .148-.053.148-.16v-.887h1.273v.886c0 .108.054.161.149.161s.149-.053.149-.16V15.61c0-.094-.055-.161-.15-.161zm8.811 8.375-2.072.376a.643.643 0 0 0-.514.725.647.647 0 0 0 .73.51l2.072-.376c.487-.094.798.202.92.51.122.31.095.725-.325.994l-3.032 1.96a.905.905 0 0 1-.92.04.887.887 0 0 1-.474-.792v-4.82c0-.805-.42-1.503-1.137-1.892a2.161 2.161 0 0 0-2.22.08l-7.662 4.927c-.866.55-1.19 1.557-.812 2.51.38.953 1.313 1.463 2.328 1.289L16.8 28.67a.643.643 0 0 0 .515-.725.647.647 0 0 0-.731-.51L9.897 28.63c-.501.094-.799-.202-.92-.51-.123-.31-.095-.725.324-.994l7.662-4.926a.906.906 0 0 1 .92-.04.887.887 0 0 1 .474.792v4.819c0 .805.42 1.503 1.137 1.892.325.175.69.269 1.042.269a2.22 2.22 0 0 0 1.178-.35l3.046-1.959c.866-.55 1.19-1.557.812-2.51-.393-.953-1.327-1.477-2.342-1.289zm10.72 1.276c-.38-.953-1.313-1.464-2.328-1.29l-2.071.377a.643.643 0 0 0-.515.725.647.647 0 0 0 .731.51l2.071-.376c.487-.094.799.201.92.51.122.309.095.725-.324.993l-3.032 1.973a.906.906 0 0 1-.92.04.887.887 0 0 1-.475-.791v-6.35a.633.633 0 0 0-.636-.63.633.633 0 0 0-.636.63v6.35c0 .805.42 1.503 1.137 1.892.325.175.69.269 1.042.269a2.22 2.22 0 0 0 1.178-.35l3.046-1.959c.866-.564 1.19-1.57.812-2.523z"/></g><defs><clipPath id="aeclip0_1_1464"><path fill="#fff" transform="translate(7.5 10)" d="M0 0h26.667v20H0z"/></clipPath></defs></svg><svg fill="none" viewBox="0 0 40 40" id="banks-logo--logo_11" xmlns="http://www.w3.org/2000/svg"><rect width="40" height="40" rx="4" fill="#FE5000"/><rect x="5.833" y="6.667" width="28.333" height="28.333" rx="12" fill="#fff"/><path d="M30.06 5.833H9.99A4.988 4.988 0 0 0 5 10.816v20.035a4.988 4.988 0 0 0 4.991 4.982h20.017a4.988 4.988 0 0 0 4.991-4.982V10.816c.052-2.75-2.184-4.983-4.94-4.983zm3.431 24.499c-.052.052-.156.103-.208.052a25.56 25.56 0 0 0-13.257-3.686 25.56 25.56 0 0 0-13.258 3.686c-.052.051-.156 0-.208-.052-.052-.104 0-.156.052-.208 3.535-2.699 6.55-6.125 8.89-10.173 2.34-4.049 3.796-8.408 4.368-12.768 0-.052.052-.156.156-.156.104 0 .155.052.155.156.572 4.36 2.028 8.72 4.368 12.768a34.23 34.23 0 0 0 8.89 10.121c.104.104.104.156.052.26z" fill="#FE5000"/></svg><svg fill="none" viewBox="0 0 40 40" id="banks-logo--logo_12" xmlns="http://www.w3.org/2000/svg"><path fill="#016E89" d="M0 0h40v40H0z"/><path fill-rule="evenodd" clip-rule="evenodd" d="M27.777 17.537h-2.135v.349h1.962v15.342H12.348V17.887h5.824v-.35H12v16.041h15.95V17.537h-.173z" fill="#fff"/><path fill-rule="evenodd" clip-rule="evenodd" d="m27.092 32.58-1.12.008.709-14.127.053-.004.358 14.123zm-1.456.01-1.12.01.629-11.517.2-.297.29 11.805zm-1.456.011-1.122.008.523-9.551c.118-.133.236-.269.354-.406l.245 9.95zm-1.455.014-1.124.006.44-8.028c.16-.144.318-.291.474-.441l.21 8.463zm-1.456.008-1.124.014.372-6.798c.194-.146.382-.294.573-.444l.179 7.228zm-1.458.014-1.125.008.318-5.776c.22-.139.44-.28.657-.426l.15 6.194zm-1.454.01-1.126.008.269-4.913c.245-.13.487-.263.728-.404l.13 5.31zm-1.456.011-1.126.01.228-4.18c.264-.123.526-.25.786-.38l.112 4.55zm-1.457.016-1.127.007.196-3.556c.28-.113.56-.23.836-.348l.095 3.897zm-2.48.016.062-3.006v-.012c.296-.099.59-.205.88-.315l.083 3.326-1.026.007zm12.241-14.269c-.215.449-.453.888-.72 1.311l.26-4.742a9.64 9.64 0 0 0 .37-.14l.09 3.571zm-1.296 2.165c-.277.38-.57.747-.878 1.101l.348-6.398c.134-.015.266-.032.396-.052l.134 5.349zm-1.415 1.693c-.322.341-.658.673-1.005.991l.438-8.027c.13.022.263.038.396.05l.17 6.986zm-1.422 1.364c-.363.322-.735.624-1.11.919l.535-9.788c.117.061.238.118.36.17l.214 8.7zm-1.427 1.162-.488.336-.694.416c.037-.616.098-1.79.143-2.818l.503-9.224c.082.128.17.248.267.364l.269 10.926z" fill="#fff"/><mask id="aga" style="mask-type:alpha" maskUnits="userSpaceOnUse" x="19" y="3" width="4" height="11"><path d="M19.2 3.09h3.331v10.817h-3.33V3.09z" fill="#fff"/></mask><g mask="url(#aga)"><path fill-rule="evenodd" clip-rule="evenodd" d="m22.175 6.817.315 5.913.041 1.13c-.267.063-.58.063-.906.003l.316-7.047a.5.5 0 0 0 .234 0zm-.888 6.964a4.231 4.231 0 0 1-.887-.38l.351-7.794c.079.136.158.26.236.378l.299 7.796zm-1.269-.616a4.457 4.457 0 0 1-.817-.73l.433-9.346.047.002.337 10.074z" fill="#fff"/></g></svg><svg fill="none" viewBox="0 0 40 40" id="banks-logo--logo_13" xmlns="http://www.w3.org/2000/svg"><path fill="#1E4679" d="M0 0h40v40H0z"/><path fill-rule="evenodd" clip-rule="evenodd" d="M18.232 14.167c.085 0 .125-.077.088-.173l-.19-.488c-.036-.094-.135-.173-.22-.173h-6.975c-.085 0-.125.077-.088.173l.189.488c.037.094.136.173.221.173h6.975zm-.079 1.006c-.033-.095-.12-.173-.197-.173h-6.199c-.076 0-.11.079-.078.173l.168.488c.033.094.12.172.197.172h6.199c.076 0 .11-.076.078-.172l-.168-.488zm2.455 1.667c-.04-.095-.151-.173-.246-.173h-7.749c-.095 0-.139.076-.098.172l.212.488c.04.095.151.173.246.173h7.747c.095 0 .139-.077.098-.173l-.21-.488zm.834 1.666c-.041-.094-.152-.173-.246-.173h-7.75c-.094 0-.138.077-.097.173l.21.488c.04.094.15.173.245.173h7.75c.094 0 .138-.077.097-.173l-.21-.488zm.833 1.84c-.041-.189-.151-.346-.246-.346h-7.75c-.094 0-.138.154-.097.346l.21.978c.04.189.151.343.246.343h7.749c.095 0 .139-.154.098-.343l-.21-.978z" fill="#FEFEFE"/><path fill-rule="evenodd" clip-rule="evenodd" d="M29.167 21.667a1.667 1.667 0 1 0-.001-3.332 1.667 1.667 0 0 0 0 3.332z" fill="#EE3142"/><path fill-rule="evenodd" clip-rule="evenodd" d="M20.671 11.667c.09 0 .162-.086.162-.19v-.453c0-.105-.073-.19-.162-.19H9.33c-.09 0-.162.085-.162.19v.452c0 .105.073.19.162.19h11.34zM15.104 22.5c-.087 0-.128.056-.09.124l4.507 8.158c.038.068.13.068.167 0l4.118-7.552a.282.282 0 0 1 .227-.125h6.642c.087 0 .158-.062.158-.138v-.329c0-.076-.07-.138-.158-.138h-15.57zm15.58-11.667h-5.445c-.083 0-.15.075-.15.165v.393c0 .09.067.165.15.165h.808c.2.013 1.36.02.918 1.5l-3.619 8.46c-.035.083.004.15.087.15h1.237a.26.26 0 0 0 .216-.15l3.907-8.933c.179-.403.394-.676.644-.817.251-.139.578-.212 1.004-.212h.241c.084 0 .151-.074.151-.165v-.392c.002-.09-.066-.164-.15-.164z" fill="#FEFEFE"/></svg><svg fill="none" viewBox="0 0 40 40" id="banks-logo--logo_14" xmlns="http://www.w3.org/2000/svg"><path fill="#57BCEB" d="M0 0h40v40H0z"/><path d="M33.5 21.01c0 4.837-2.525 9.242-6.64 11.41l-.94.432a2.286 2.286 0 0 1-1.01.215 1.582 1.582 0 0 1-1.445-.792 2.225 2.225 0 0 1-.215-1.373 1.738 1.738 0 0 1 .865-1.155c2.383-1.082 3.973-3.537 3.973-6.282V16.39c0-2.745-1.518-5.2-3.9-6.283 0 0-.723-.36-.865-1.155a2.226 2.226 0 0 1 .215-1.372 1.583 1.583 0 0 1 1.445-.793 2 2 0 0 1 .937.215s.868.435.94.435c4.115 2.163 6.64 6.57 6.64 11.408v2.165zm-17.76 8.81a1.738 1.738 0 0 1 .868 1.155c.075.469 0 .95-.218 1.372a1.582 1.582 0 0 1-1.445.793 2 2 0 0 1-.938-.215l-.94-.435c-4.114-2.165-6.642-6.498-6.642-11.408v-2.02c0-4.837 2.528-9.242 6.643-11.41.075 0 .94-.432.94-.432a2.23 2.23 0 0 1 .937-.218c.65 0 1.155.29 1.445.795.217.423.293.904.218 1.373-.146.795-.868 1.155-.868 1.155-2.383 1.082-3.9 3.537-3.9 6.282v7.075c-.07 2.6 1.518 5.055 3.9 6.138z" fill="#fff"/></svg><svg fill="none" viewBox="0 0 64 64" id="banks-logo--logo_15" xmlns="http://www.w3.org/2000/svg"><path fill="#0294F0" d="M0 0h36v64H0z"/><path fill="#F3EA14" d="M36 0h28v44H36z"/><path fill="#21A038" d="M12 33.333h52V64H12z"/><g filter="url(#ajfilter0_b_1_288)"><path fill="url(#ajpaint0_angular_1_288)" fill-opacity=".01" d="M0 0h64v64H0z"/></g><path d="M45.61 21.405c.818 1.055 1.5 2.212 2.079 3.437L31.94 36.447l-6.613-4.152v-4.968l6.579 4.117 13.702-10.039zm-26.997 10.55c0-.238 0-.442.034-.68l-3.988-.205c0 .272-.034.579-.034.85 0 4.765 1.943 9.087 5.079 12.218l2.829-2.824a13.07 13.07 0 0 1-3.92-9.36zm13.294-13.273c.238 0 .443 0 .682.034l.204-3.981c-.273 0-.58-.034-.852-.034a17.28 17.28 0 0 0-12.237 5.07l2.829 2.825a13.171 13.171 0 0 1 9.374-3.914zm0 26.545c-.239 0-.443 0-.682-.034l-.205 3.982c.273 0 .58.034.853.034 4.772 0 9.1-1.94 12.237-5.07l-2.83-2.825c-2.386 2.45-5.692 3.913-9.373 3.913z" fill="#fff"/><path d="m39.406 20.997 3.374-2.485c-2.965-2.382-6.749-3.845-10.873-3.845v3.981c2.795.034 5.385.885 7.499 2.349zm9.817 10.958c0-1.055-.103-2.076-.273-3.097l-3.715 2.756v.34c0 3.914-1.705 7.42-4.398 9.836l2.693 2.96a17.227 17.227 0 0 0 5.693-12.795zM31.907 45.227c-3.92 0-7.431-1.701-9.851-4.39l-2.966 2.689a17.212 17.212 0 0 0 12.817 5.683v-3.982zM23.01 22.12l-2.693-2.961a17.16 17.16 0 0 0-5.692 12.796h3.988c0-3.88 1.704-7.42 4.397-9.835z" fill="#fff"/><defs><radialGradient id="ajpaint0_angular_1_288" cx="0" cy="0" r="1" gradientUnits="userSpaceOnUse" gradientTransform="matrix(0 32 -32 0 32 32)"><stop offset=".328" stop-color="#0199F9"/><stop offset=".51" stop-color="#EFE815"/><stop offset="1" stop-color="#21A038"/></radialGradient><filter id="ajfilter0_b_1_288" x="-32" y="-32" width="128" height="128" filterUnits="userSpaceOnUse" color-interpolation-filters="sRGB"><feFlood flood-opacity="0" result="BackgroundImageFix"/><feGaussianBlur in="BackgroundImage" stdDeviation="16"/><feComposite in2="SourceAlpha" operator="in" result="effect1_backgroundBlur_1_288"/><feBlend in="SourceGraphic" in2="effect1_backgroundBlur_1_288" result="shape"/></filter></defs></svg><svg fill="none" viewBox="0 0 48 48" id="banks-logo--logo_2" xmlns="http://www.w3.org/2000/svg"><path fill="#F7F8FC" d="M0 0h48v48H0z"/><g clip-path="url(#akclip0_1_130)"><path d="M33.333 20.5c-1.827 4.887-7.506 7.45-12.688 5.727-5.183-1.725-7.903-7.077-6.074-11.966 1.826-4.886 7.506-7.449 12.688-5.726 5.18 1.724 7.9 7.08 6.074 11.965z" fill="url(#akpaint0_linear_1_130)"/><path d="m33.897 32.658.003.949c.006 1.802-4.438 3.28-9.935 3.3-5.494.02-9.95-1.428-9.96-3.23l-.002-.946 19.894-.073z" fill="url(#akpaint1_linear_1_130)"/><path d="M33.897 32.658c.006 1.806-4.441 3.281-9.935 3.298-5.494.016-9.956-1.428-9.959-3.228-.006-1.806 4.441-3.284 9.938-3.303 5.491-.014 9.95 1.431 9.956 3.233z" fill="url(#akpaint2_linear_1_130)"/><path d="M14.003 39.91c0-.263 4.453-.527 9.95-.527 5.494 0 9.947.261 9.947.527v.563c0 .26-4.453.524-9.947.524-5.494 0-9.95-.26-9.95-.524v-.563z" fill="url(#akpaint3_linear_1_130)"/></g><defs><linearGradient id="akpaint0_linear_1_130" x1="21.528" y1="20.449" x2="35.53" y2=".513" gradientUnits="userSpaceOnUse"><stop stop-color="#DB1E33"/><stop offset="1" stop-color="#F57E21"/></linearGradient><linearGradient id="akpaint1_linear_1_130" x1="27.322" y1="34.751" x2="35.901" y2="34.988" gradientUnits="userSpaceOnUse"><stop stop-color="#A11C34"/><stop offset="1" stop-color="#C22034"/></linearGradient><linearGradient id="akpaint2_linear_1_130" x1="22.702" y1="33.282" x2="42.77" y2="22.648" gradientUnits="userSpaceOnUse"><stop stop-color="#DB1E33"/><stop offset=".81" stop-color="#F08128"/><stop offset="1" stop-color="#F79421"/></linearGradient><linearGradient id="akpaint3_linear_1_130" x1="21.866" y1="40.27" x2="9.054" y2="40.812" gradientUnits="userSpaceOnUse"><stop stop-color="#A11C34"/><stop offset="1" stop-color="#C22034"/></linearGradient><clipPath id="akclip0_1_130"><path fill="#fff" transform="translate(14 8)" d="M0 0h20v33H0z"/></clipPath></defs></svg><svg fill="none" viewBox="0 0 48 48" id="banks-logo--logo_3" xmlns="http://www.w3.org/2000/svg"><path fill="#D93832" d="M0 0h48v48H0z"/><path fill-rule="evenodd" clip-rule="evenodd" d="M14 26.956C14 32.455 17.087 38 24 38c6.907 0 10-5.545 10-11.044 0-3.757-1.269-8.082-3.386-11.575C28.555 12.006 26.081 10 24 10c-2.087 0-4.562 2.007-6.603 5.38C15.269 18.875 14 23.2 14 26.956z" fill="#fff"/></svg><svg fill="none" viewBox="0 0 48 48" id="banks-logo--logo_4" xmlns="http://www.w3.org/2000/svg"><path fill="#445176" d="M0 0h48v48H0z"/><path fill-rule="evenodd" clip-rule="evenodd" d="M23.877 17.468c6.758.035 14.29 4.891 14.287 7.44-.005 3.71-4.157 3.946-13.627 3.516-8.22-.373-9.758.574-9.797 3.197-.036 2.4 5.683 4.966 13.253 4.855-2.063.566-4.211.735-6.38.246-3.74-.843-7.93-3.425-7.96-5.52-.068-4.433 7.164-4.896 10.969-4.752 4.622.173 11.578.409 11.693-1.882.166-3.25-8.272-6.3-12.382-6.288l-.058-.812h.002z" fill="#fff"/><path fill-rule="evenodd" clip-rule="evenodd" d="M17.853 12.62c1.073-.828 3.197-1.573 6.3-1.58 6.91-.016 10.35 3.047 10.489 5.125.172 2.579-2.905 3.467-10.263 3.043-7.574-.436-12.374 0-12.413 2.198-.04 2.426 9.432 8.283 16.337 8.283 4.752 0 7.396-.918 8.825-1.636a12.355 12.355 0 0 1-.876 1.99c-1.939.374-4.548.796-7.987.648-5.654-.243-17.241-5.318-17.241-9.286 0-3.969 9.206-4.47 13.243-4.47 4.037 0 8.979.887 8.752-1.54-.226-2.427-4.64-3.236-7.319-3.468-2.678-.23-5.658.192-7.846.693" fill="#fff"/><path fill-rule="evenodd" clip-rule="evenodd" d="M13.703 16.006c.699-.818 1.167-1.325 2.119-2.049 1.061-.484 3.947-1.288 8.567-1.265 7.065.034 12.206 3.587 12.244 5.98.048 3.084-3.75 4.116-12.198 3.671-7.913-.418-12.106.106-12.146 2.414-.042 2.554 8.678 7.796 15.888 7.619 3.499-.086 5.747-.557 7.299-1.091-.44.62-.935 1.2-1.476 1.737-1.641.279-3.571.5-5.71.407-5.907-.256-17.241-4.915-17.241-9.09s9.311-4.01 13.524-3.866c4.624.156 10.253.048 10.264-2.246.013-2.938-7.507-4.58-10.595-4.568-4.928.02-7.44.923-10.537 2.345" fill="#fff"/><path fill-rule="evenodd" clip-rule="evenodd" d="M11.928 18.895c.307-.638.528-1.092.931-1.71 2.797-1.369 6.194-2.013 10.814-1.99 6.758.034 14.035 4.004 14.031 6.554-.005 3.71-3.748 3.995-13.22 3.566-8.22-.371-11.34.523-11.38 3.146-.037 2.554 7.861 6.282 15.07 6.106 1.81-.044 3.285-.192 4.502-.398a13.82 13.82 0 0 1-2.367 1.452c-.65.029-1.325.03-2.022 0-5.906-.256-16.422-3.402-16.422-7.578 0-4.435 8.544-4.739 12.758-4.596 4.623.157 11.222.255 11.232-2.038.014-2.938-8.016-5.412-12.125-5.401-4.928.013-8.96 1.361-11.803 2.888" fill="#fff"/></svg><svg fill="none" viewBox="0 0 48 48" id="banks-logo--logo_5" xmlns="http://www.w3.org/2000/svg"><path fill="#2051B2" d="M0 0h48v48H0z"/><path d="M38.194 16.856c0-3.79-3.116-6.861-6.958-6.861h-9.828c-3.172 0-5.877 2.108-6.696 5.02h11.88c4.57 0 6.51 2.098 6.51 7.02v11.121c2.947-.811 5.092-3.487 5.092-6.604v-9.696zM9.6 31.316c0 3.79 3.114 6.86 6.958 6.86h9.828c3.171 0 5.876-2.106 6.697-5.02h-11.88c-4.571 0-6.51-2.098-6.51-7.019V15.016c-2.949.81-5.093 3.488-5.093 6.604v9.696z" fill="#fff"/><path d="M28.037 23.693h-.92v-2.206h.92c1.123 0 1.428.534 1.428 1.1 0 .563-.408 1.106-1.428 1.106zm-.92-5.418h.735c1.246 0 1.308.753 1.308.985 0 .342-.183.978-1.247.978h-.797v-1.963zm-1.613 3.847v1.922c-.39-.229-.837-.411-1.306-.612-.511-.223-1.062-.505-1.062-1.14 0-.325.204-.805 1.184-.805h1.817l-.633.635zm-6.25 4.916h-.756v-2.59h.756c.94 0 1.368.562 1.368 1.248 0 .636-.386 1.342-1.368 1.342zm10.254-6.206v-.03c.55-.172 1.287-.624 1.287-1.814 0-1.338-1.105-1.953-2.656-1.953h-2.635v3.204h-1.552c-2.083 0-2.512 1.44-2.512 2.226 0 1.116.654 1.61 1.86 2.205.732.36 1.61.583 1.61 1.41 0 .434-.407.958-1.284.958h-1.634c.245-.414.346-.867.346-1.26 0-.513-.184-2.569-3.084-2.569h-2.37v7.926h1.614v-3.453l.653.644h4.413c2.06 0 3.041-1.046 3.041-2.296 0-.442-.081-.798-.224-1.087h1.655c2.552 0 3.144-1.25 3.144-2.228 0-.996-.653-1.732-1.673-1.883h.001z" fill="#fff"/></svg><svg fill="none" viewBox="0 0 48 48" id="banks-logo--logo_6" xmlns="http://www.w3.org/2000/svg"><path fill="#E9041E" d="M0 0h48v24H0z"/><path fill="#000" d="M0 48h48V24H0z"/><path d="M8 22h31v4H8v-4z" fill="#fff"/></svg><svg fill="none" viewBox="0 0 48 48" id="banks-logo--logo_7" xmlns="http://www.w3.org/2000/svg"><path fill="#C20018" d="M0 0h48v48H0z"/><path fill-rule="evenodd" clip-rule="evenodd" d="M26.116 17.654 19.58 24.3l-3.28-3.336 3.281-3.336h-6.562l-3.2 3.336 9.817 10.009 8.394-8.62h5.03l4.65-4.698H26.117zm-5.114 13.152.931-.946 6.48-6.56h9.297l-4.648 4.697h-2.736l-2.762 2.808h-6.562v.001z" fill="#fff"/></svg><svg fill="none" viewBox="0 0 40 40" id="banks-logo--logo_8" xmlns="http://www.w3.org/2000/svg"><path fill="#E95A0C" d="M0 0h40v40H0z"/><path fill-rule="evenodd" clip-rule="evenodd" d="m16.208 24.032 2.592 2.677v-6.093c0-1.184-.634-2.632-1.44-3.448l-2.558-2.645v6.093c0 1.171.635 2.634 1.408 3.416h-.002zM24.8 32.8l-4.512-4.56c-.896-.909-2.448-1.531-3.728-1.531H12.8l4.507 4.554c.925.939 2.296 1.537 3.597 1.537H24.8zm-6-18.17c0-1.321.59-2.716 1.514-3.656L24.8 6.4v3.818c0 1.3-.614 2.876-1.509 3.786l-4.491 4.58V14.63z" fill="#fff"/></svg><svg fill="none" viewBox="0 0 40 40" id="banks-logo--logo_9" xmlns="http://www.w3.org/2000/svg"><path fill="#EE3524" d="M0 0h40v40H0z"/><path d="M20 6.667c1.76 0 2.328 1.304 2.797 2.608.196.542 4.793 13.464 4.93 13.845.039.1.02.281-.157.341-.176.06-2.543 1.024-2.68 1.064a.268.268 0 0 1-.332-.16c-.059-.141-1.037-2.95-1.154-3.251h-6.808c-.117.32-1.115 3.13-1.154 3.25-.04.12-.196.22-.332.16-.137-.06-2.543-1.003-2.68-1.063a.288.288 0 0 1-.157-.34c.176-.482 4.695-13.184 4.93-13.846.45-1.284 1.036-2.608 2.797-2.608zm-8.08 23.095c-.136 0-.253.12-.253.28v3.01c0 .16.117.281.254.281h16.158c.137 0 .254-.12.254-.28v-3.01c0-.16-.117-.281-.254-.281H11.921zM20 10.88l-2.308 7.083h4.636L20.02 10.88H20z" fill="#fff"/></svg><svg fill="none" viewBox="0 0 16 16" id="bus" xmlns="http://www.w3.org/2000/svg"><path d="M14.003 5.317V4a2.67 2.67 0 0 0-2.667-2.667H4.669A2.67 2.67 0 0 0 2.003 4v1.332l-.051.003A.666.666 0 0 0 1.333 6v1.333c0 .368.298.667.667.667h.003v4c0 .49.268.915.664 1.147V14c0 .369.298.667.666.667H4A.666.666 0 0 0 4.667 14v-.667h6.666V14c0 .369.298.667.667.667h.667a.666.666 0 0 0 .666-.667v-.85a1.33 1.33 0 0 0 .67-1.15V8a.666.666 0 0 0 .666-.667V6.041a.67.67 0 0 0-.048-.303c-.135-.325-.423-.403-.618-.421zM12.67 12H3.336V8.667h9.334V12zM7.336 4.667v2.666h-4V4.667h4zm5.333 0v2.666h-4V4.667h4zm-8-2h6.667c.49 0 .917.27 1.148.666H3.521a1.33 1.33 0 0 1 1.148-.666z" fill="#F7F8FC" fill-opacity=".54"/><path d="M5 11.333a1 1 0 1 0 0-2 1 1 0 0 0 0 2zm6 0a1 1 0 1 0 0-2 1 1 0 0 0 0 2z" fill="#F7F8FC" fill-opacity=".54"/></svg><svg fill="none" viewBox="0 0 24 24" id="like" xmlns="http://www.w3.org/2000/svg"><path d="M20.205 4.791a5.938 5.938 0 0 0-4.209-1.754A5.906 5.906 0 0 0 12 4.595a5.904 5.904 0 0 0-3.996-1.558 5.942 5.942 0 0 0-4.213 1.758c-2.353 2.363-2.352 6.059.002 8.412L12 21.414l8.207-8.207c2.354-2.353 2.355-6.049-.002-8.416z" fill="#EC6B60"/></svg><svg fill="none" viewBox="0 0 18 16" id="like-grey" xmlns="http://www.w3.org/2000/svg"><path d="M9.001 1.83a4.92 4.92 0 0 0-3.33-1.3c-1.315 0-2.56.52-3.51 1.465C.2 3.966.2 7.046 2.161 9.006l6.11 6.11a.83.83 0 0 0 .73.41.826.826 0 0 0 .66-.34l6.178-6.18c1.962-1.962 1.962-5.04-.001-7.013A4.949 4.949 0 0 0 12.33.53C11.094.53 9.92.99 9 1.828zm5.66 1.341c1.302 1.31 1.303 3.354.001 4.657l-5.66 5.66-5.662-5.66a3.263 3.263 0 0 1-.001-4.654 3.294 3.294 0 0 1 2.332-.976c.871 0 1.696.346 2.324.975l.417.416a.832.832 0 0 0 1.178 0l.417-.416c1.26-1.258 3.395-1.254 4.653-.002z" fill="#78859B"/></svg><svg fill="none" viewBox="0 0 25 24" id="links" xmlns="http://www.w3.org/2000/svg"><path d="M5.913 18v3.767l1.515-.91L12.19 18h4.723c1.103 0 2-.896 2-2V8c0-1.103-.897-2-2-2h-12c-1.103 0-2 .897-2 2v8c0 1.104.897 2 2 2h1zm-1-10h12v8h-5.277l-3.723 2.235V16h-3V8z" fill="#F7F8FC"/><path d="M20.913 2h-12c-1.103 0-2 .897-2 2h12c1.103 0 2 .897 2 2v8.001c1.103 0 2-.897 2-2V4c0-1.104-.897-2-2-2z" fill="#F7F8FC"/></svg><svg fill="none" viewBox="0 0 24 24" id="login" xmlns="http://www.w3.org/2000/svg"><path d="M12 2C6.579 2 2 6.579 2 12s4.579 10 10 10 10-4.579 10-10S17.421 2 12 2zm0 5c1.727 0 3 1.272 3 3s-1.273 3-3 3c-1.726 0-3-1.272-3-3s1.274-3 3-3zm-5.106 9.772c.897-1.32 2.393-2.2 4.106-2.2h2c1.714 0 3.209.88 4.106 2.2A6.969 6.969 0 0 1 12 19a6.969 6.969 0 0 1-5.106-2.228z" fill="#38424E"/></svg><svg fill="none" viewBox="0 0 33 32" id="logo" xmlns="http://www.w3.org/2000/svg"><path d="M0 4.139a4 4 0 0 1 4-4h20.031a4 4 0 0 1 4 4V24.17a4 4 0 0 1-4 4H4a4 4 0 0 1-4-4V4.14z" fill="#5AB677"/><rect x="14.016" y="19.473" width="8.76" height="17.52" rx="2" transform="rotate(-45 14.016 19.473)" fill="#5AB677"/><path fill-rule="evenodd" clip-rule="evenodd" d="M21.024 12.206 15.4 6.908a2 2 0 0 0-2.74-.003l-5.652 5.301v6.962a2 2 0 0 0 2 2h10.016a2 2 0 0 0 2-2v-6.962z" fill="#fff"/></svg><svg fill="none" viewBox="0 0 16 16" id="onfoot" xmlns="http://www.w3.org/2000/svg"><path d="M8.667 4a1.333 1.333 0 1 0 0-2.667 1.333 1.333 0 0 0 0 2.667zm.652 4.18c.163.245.407.431.687.525l1.783.594.422-1.264-1.783-.594-1.109-1.664a1.344 1.344 0 0 0-.512-.452l-.956-.478a1.326 1.326 0 0 0-.919-.1l-2.129.532a1.335 1.335 0 0 0-.87.697L2.737 8.369l1.192.596 1.196-2.392 1.482-.371-1.202 5.564-2.45 1.685.756 1.098 2.45-1.685c.28-.193.475-.483.546-.817l.345-1.592 1.678 1.259.617 3.083 1.307-.262-.617-3.084a1.333 1.333 0 0 0-.508-.804L8.082 9.56l.431-2.59.806 1.209z" fill="#F7F8FC" fill-opacity=".54"/></svg><svg fill="none" viewBox="0 0 16 16" id="onfoot-grey" xmlns="http://www.w3.org/2000/svg"><path d="M8.667 4a1.333 1.333 0 1 0 0-2.667 1.333 1.333 0 0 0 0 2.667zm.652 4.18c.163.245.407.431.687.525l1.783.594.422-1.264-1.783-.594-1.109-1.664a1.344 1.344 0 0 0-.512-.452l-.956-.478a1.326 1.326 0 0 0-.919-.1l-2.129.532a1.335 1.335 0 0 0-.87.697L2.737 8.369l1.192.596 1.196-2.392 1.482-.371-1.202 5.564-2.45 1.685.756 1.098 2.45-1.685c.28-.193.475-.483.546-.817l.345-1.592 1.678 1.259.617 3.083 1.307-.262-.617-3.084a1.334 1.334 0 0 0-.508-.804L8.082 9.56l.431-2.59.806 1.209z" fill="#78859B"/></svg><svg fill="none" viewBox="0 0 14 14" id="phone" xmlns="http://www.w3.org/2000/svg"><path d="m13.365 10.855-3.049-2.772a.75.75 0 0 0-1.043.032L7.48 9.961c-.433-.082-1.301-.353-2.195-1.245-.894-.895-1.165-1.765-1.245-2.194l1.844-1.796a.75.75 0 0 0 .032-1.043L3.145.635A.75.75 0 0 0 2.1.57L.473 1.965a.75.75 0 0 0-.217.487C.245 2.64.03 7.081 3.474 10.527c3.005 3.003 6.768 3.223 7.805 3.223.151 0 .244-.005.269-.006a.744.744 0 0 0 .486-.218l1.395-1.628a.748.748 0 0 0-.064-1.043z" fill="#38424E"/></svg><svg fill="none" viewBox="0 0 12 12" id="question" xmlns="http://www.w3.org/2000/svg"><path d="M6 3a1.97 1.97 0 0 0-1.967 1.967h1a.968.968 0 0 1 1.934 0c0 .299-.24.516-.608.813a4.604 4.604 0 0 0-.345.3c-.5.498-.514 1.027-.514 1.087V7.5h1v-.316c0-.008.016-.194.22-.397.075-.075.17-.15.268-.229.389-.316.979-.792.979-1.591A1.969 1.969 0 0 0 6 3zm-.5 5h1v1h-1V8z" fill="#38424E"/><path d="M6 1C3.243 1 1 3.243 1 6s2.243 5 5 5 5-2.243 5-5-2.243-5-5-5zm0 9c-2.205 0-4-1.794-4-4 0-2.205 1.795-4 4-4 2.206 0 4 1.795 4 4 0 2.206-1.794 4-4 4z" fill="#38424E"/></svg></svg>